<svg width="766" height="556" viewBox="0 0 766 556" fill="none" xmlns="http://www.w3.org/2000/svg">
<path d="M183 193C183 121.203 241.203 63 313 63H453C524.797 63 583 121.203 583 193V303C583 391.366 511.366 463 423 463H343C254.634 463 183 391.366 183 303V193Z" fill="#604533"/>
<path d="M272.191 67.6142C298.8 59.3156 247.634 219.004 208.457 307.781C197.674 332.217 173.082 379.296 165.191 371.497C157.3 363.699 166.983 351.796 159.092 348.497C151.201 345.199 8.69113 229.114 35.3001 203.316C61.9091 177.517 245.582 75.9128 272.191 67.6142Z" fill="black"/>
<path d="M494.08 67.6142C467.471 59.3156 518.637 219.004 557.814 307.781C568.597 332.217 593.189 379.296 601.08 371.497C608.971 363.699 599.287 351.796 607.179 348.497C615.07 345.199 757.58 229.114 730.971 203.316C704.362 177.517 520.689 75.9128 494.08 67.6142Z" fill="black"/>
<path d="M445 477.362C445 502.414 417.466 510 383.5 510C349.534 510 322 502.414 322 477.362C322 452.309 349.534 432 383.5 432C417.466 432 445 452.309 445 477.362Z" fill="#DF9B9B"/>
<path d="M352 63H414L416.695 68.3908C421.478 77.9562 423.617 88.6261 422.891 99.2959L414 230H383H352L343.109 99.2959C342.383 88.6261 344.522 77.9562 349.305 68.3908L352 63Z" fill="#FEFEFE"/>
<path d="M352.5 219.038C352.5 251.347 292.196 316.538 269 316.538C245.804 316.538 253.5 235.347 253.5 203.038C253.5 170.73 307.804 105.538 331 105.538C354.196 105.538 352.5 186.73 352.5 219.038Z" fill="black"/>
<path d="M413.303 219.038C413.303 251.347 473.607 316.538 496.803 316.538C519.999 316.538 512.303 235.347 512.303 203.038C512.303 170.73 457.999 105.538 434.803 105.538C411.607 105.538 413.303 186.73 413.303 219.038Z" fill="black"/>
<path d="M293 318.138C293 285.589 308.841 255.077 335.463 236.349L339.847 233.265C365.734 215.054 400.266 215.054 426.153 233.265L430.537 236.349C457.159 255.077 473 285.589 473 318.138V476.053C473 489.443 460.099 499.05 447.271 495.215L387.297 477.285C384.494 476.447 381.506 476.447 378.703 477.285L318.729 495.215C305.901 499.05 293 489.443 293 476.053V318.138Z" fill="#FEFEFE"/>
<path d="M337 276.667C337 261.939 348.939 250 363.667 250H403.333C418.061 250 430 261.939 430 276.667V283.5C430 309.181 409.181 330 383.5 330V330C357.819 330 337 309.181 337 283.5V276.667Z" fill="black"/>
<circle cx="324" cy="403" r="4" fill="black"/>
<circle cx="316" cy="357" r="4" fill="black"/>
<circle cx="339" cy="368" r="4" fill="black"/>
<circle r="4" transform="matrix(-1 0 0 1 442 403)" fill="black"/>
<circle r="4" transform="matrix(-1 0 0 1 450 357)" fill="black"/>
<circle r="4" transform="matrix(-1 0 0 1 427 368)" fill="black"/>
</svg>
